<?xml version="1.0" encoding="iso-8859-1"?>
<!-- Generator: Adobe Illustrator 19.0.0, SVG Export Plug-In . SVG Version: 6.00 Build 0)  -->
<svg version="1.1" id="Layer_1" xmlns="http://www.w3.org/2000/svg" xmlns:xlink="http://www.w3.org/1999/xlink" x="0px" y="0px"
	 viewBox="0 0 392.663 392.663" style="enable-background:new 0 0 392.663 392.663;" xml:space="preserve">
<path style="fill:#FFC10D;" d="M256.84,274.489c6.012,0,10.925-4.848,10.925-10.925V130.65H125.026v132.913
	c0,6.012,4.848,10.925,10.925,10.925H256.84z"/>
<path style="fill:#56ACE0;" d="M196.331,191.677c-6.012,0-10.925,4.848-10.925,10.925c0,6.077,4.848,10.925,10.925,10.925
	c6.012,0,10.925-4.848,10.925-10.925C207.257,196.525,202.343,191.677,196.331,191.677z"/>
<path style="fill:#FFFFFF;" d="M267.636,32.711c0-6.012-4.849-10.925-10.925-10.925H135.822c-6.012,0-10.925,4.848-10.925,10.925
	v21.786h142.739V32.711z"/>
<rect x="125.026" y="76.283" style="fill:#56ACE0;" width="142.739" height="32.582"/>
<path style="fill:#FFFFFF;" d="M196.331,341.075c-8.21,0-14.804,6.659-14.804,14.869c0,8.21,6.659,14.869,14.804,14.869
	c8.21,0,14.869-6.659,14.869-14.869C211.2,347.733,204.541,341.075,196.331,341.075z"/>
<g>
	<path style="fill:#194F82;" d="M196.396,169.891c-18.036,0-32.711,14.675-32.711,32.711s14.675,32.711,32.711,32.711
		s32.711-14.675,32.711-32.711S214.368,169.891,196.396,169.891z M196.396,213.398c-6.012,0-10.925-4.848-10.925-10.925
		s4.848-10.925,10.925-10.925s10.925,4.848,10.925,10.925S202.408,213.398,196.396,213.398z"/>
	<path style="fill:#194F82;" d="M381.737,345.018H231.37c-3.556-11.442-12.606-20.493-24.113-24.113v-24.566h49.584
		c18.036,0,32.711-14.675,32.711-32.711V32.711C289.552,14.675,274.877,0,256.84,0H135.887c-18.036,0-32.711,14.675-32.711,32.711
		v230.982c0,18.036,14.675,32.711,32.711,32.711h49.584v24.566c-11.442,3.556-20.493,12.671-24.113,24.113H10.99
		c-6.012,0-10.925,4.848-10.925,10.925c0,6.012,4.848,10.925,10.925,10.925h150.368c4.655,14.933,18.554,25.729,34.974,25.729
		s30.384-10.796,34.974-25.729h150.368c6.012,0,10.925-4.848,10.925-10.925S387.749,345.018,381.737,345.018z M125.026,32.711
		c0-6.012,4.848-10.925,10.925-10.925h120.954c6.012,0,10.925,4.848,10.925,10.925v21.786H125.026V32.711z M125.026,76.283h142.739
		v32.582H125.026V76.283z M135.887,274.489c-6.012,0-10.925-4.848-10.925-10.925V130.65h142.739v132.913
		c0,6.012-4.848,10.925-10.925,10.925H135.887z M196.396,370.747c-8.21,0-14.804-6.659-14.804-14.869
		c0-8.21,6.659-14.869,14.804-14.869c8.21,0,14.869,6.659,14.869,14.869C211.265,364.089,204.541,370.747,196.396,370.747z"/>
</g>
<g>
</g>
<g>
</g>
<g>
</g>
<g>
</g>
<g>
</g>
<g>
</g>
<g>
</g>
<g>
</g>
<g>
</g>
<g>
</g>
<g>
</g>
<g>
</g>
<g>
</g>
<g>
</g>
<g>
</g>
</svg>
